STARTFONT 2.1
COMMENT Copyright (C) 1990-1991 EWT Consulting
COMMENT Portions Copyright (C) 1994-1995 Cronyx Ltd.
COMMENT Changes Copyright (C) 1996 by Andrey A. Chernov, Moscow, Russia.
COMMENT Modified by Serge Vakulenko, <vak@cronyx.ru>
COMMENT This software may be used, modified, copied, distributed, and sold,
COMMENT in both source and binary form provided that the copyright
COMMENT and these terms are retained. Under no circumstances is the author
COMMENT responsible for the proper functioning of this software, nor does
COMMENT the author assume any responsibility for damages incurred with its use.
COMMENT $XFree86: xc/fonts/bdf/cyrillic/crox5tbo.bdf,v 3.2 1996/09/01 12:18:43 dawes Exp $
FONT -Cronyx-Times-Bold-I-Normal--25-180-100-100-P-94-KOI8-R
SIZE 18 96 96
FONTBOUNDINGBOX 33 27 -1 -6
STARTPROPERTIES 19
DEFAULT_CHAR 32
FONT_ASCENT 21
FONT_DESCENT 6
SPACING "P"
FONTNAME_REGISTRY ""
FOUNDRY "Cronyx"
FAMILY_NAME "Times"
WEIGHT_NAME "Bold"
SLANT "I"
SETWIDTH_NAME "Normal"
ADD_STYLE_NAME ""
AVERAGE_WIDTH 94
CHARSET_REGISTRY "KOI8"
CHARSET_ENCODING "R"
PIXEL_SIZE 25
POINT_SIZE 180
RESOLUTION_X 100
RESOLUTION_Y 100
COPYRIGHT "Copyright (C) 1990, 1991 EWT Consulting, Portions Copyright (C) 1994 Cronyx Ltd., Portions Copyright (C) 1996 by Andrey A. Chernov, Moscow, Russia."
ENDPROPERTIES
CHARS 224
STARTCHAR space
ENCODING 32
SWIDTH 259 0
DWIDTH 7 0
BBX 16 27 -1 -6
BITMAP
0000
0000
0000
0000
0000
0000
0000
0000
0000
0000
0000
0000
0000
0000
0000
0000
0000
0000
0000
0000
0000
0000
0000
0000
0000
0000
0000
ENDCHAR
STARTCHAR exclam
ENCODING 33
SWIDTH 296 0
DWIDTH 8 0
BBX 17 27 -1 -6
BITMAP
000000
000000
000000
000000
001800
003C00
007800
007800
007800
00F000
00F000
00F000
00C000
00C000
00C000
018000
000000
018000
078000
078000
030000
000000
000000
000000
000000
000000
000000
ENDCHAR
STARTCHAR quotedbl
ENCODING 34
SWIDTH 407 0
DWIDTH 11 0
BBX 20 27 -1 -6
BITMAP
000000
000000
000000
000000
003180
007BC0
00F780
006300
006300
00C600
000000
000000
000000
000000
000000
000000
000000
000000
000000
000000
000000
000000
000000
000000
000000
000000
000000
ENDCHAR
STARTCHAR numbersign
ENCODING 35
SWIDTH 481 0
DWIDTH 13 0
BBX 22 27 -1 -6
BITMAP
000000
000000
000000
000000
001CE0
001CE0
0039C0
0039C0
0039C0
01FFE0
00E700
00E700
01CE00
01CE00
01CE00
0FFF00
073800
073800
0E7000
0E7000
0E7000
000000
000000
000000
000000
000000
000000
ENDCHAR
STARTCHAR dollar
ENCODING 36
SWIDTH 481 0
DWIDTH 13 0
BBX 22 27 -1 -6
BITMAP
000000
000000
000000
000300
000300
000FF0
003FE0
0076E0
007660
00ECC0
00FC00
007C00
007E00
001F00
001F00
003F00
063700
063700
0E6E00
0F7C00
0FF800
00C000
00C000
00C000
000000
000000
000000
ENDCHAR
STARTCHAR percent
ENCODING 37
SWIDTH 777 0
DWIDTH 21 0
BBX 30 27 -1 -6
BITMAP
00000000
00000000
00000000
00000000
000F8380
001DFF80
00719E00
00E19C00
00E19C00
01C67000
01CCE000
00F8E000
00038000
00071F00
00073B80
001CE300
0039C300
0039C300
00E38C00
01C39800
01C1F000
00000000
00000000
00000000
00000000
00000000
00000000
ENDCHAR
STARTCHAR ampersand
ENCODING 38
SWIDTH 740 0
DWIDTH 20 0
BBX 29 27 -1 -6
BITMAP
00000000
00000000
00000000
00000000
0001E000
0003F000
000E7000
000E3000
000E7000
000FC000
000F8000
001F3F00
00FF3C00
01C71800
01C3B800
0707E000
0703E000
0701E000
0707EC00
07DEFC00
01F87800
00000000
00000000
00000000
00000000
00000000
00000000
ENDCHAR
STARTCHAR quoteright
ENCODING 39
SWIDTH 259 0
DWIDTH 7 0
BBX 16 27 -1 -6
BITMAP
0000
0000
0000
0000
0018
003C
0078
0030
0030
0060
0000
0000
0000
0000
0000
0000
0000
0000
0000
0000
0000
0000
0000
0000
0000
0000
0000
ENDCHAR
STARTCHAR parenleft
ENCODING 40
SWIDTH 333 0
DWIDTH 9 0
BBX 18 27 -1 -6
BITMAP
000000
000000
000000
000000
000300
000600
001800
003800
003000
00E000
00E000
01C000
038000
038000
038000
070000
070000
070000
0E0000
070000
070000
060000
070000
030000
030000
018000
000000
ENDCHAR
STARTCHAR parenright
ENCODING 41
SWIDTH 333 0
DWIDTH 9 0
BBX 18 27 -1 -6
BITMAP
000000
000000
000000
000000
006000
003000
003000
003800
001800
003800
003800
001C00
003800
003800
003800
007000
007000
007000
00E000
00E000
01C000
038000
030000
070000
0C0000
180000
000000
ENDCHAR
STARTCHAR asterisk
ENCODING 42
SWIDTH 333 0
DWIDTH 9 0
BBX 18 27 -1 -6
BITMAP
000000
000000
000000
000C00
001E00
007F80
00FF00
003C00
00FF00
01FE00
007800
003000
000000
000000
000000
000000
000000
000000
000000
000000
000000
000000
000000
000000
000000
000000
000000
ENDCHAR
STARTCHAR plus
ENCODING 43
SWIDTH 555 0
DWIDTH 15 0
BBX 24 27 -1 -6
BITMAP
000000
000000
000000
000000
000000
000000
000000
000000
000000
000E00
000E00
000E00
001C00
01FFC0
01FFC0
003800
003800
003800
007000
000000
000000
000000
000000
000000
000000
000000
000000
ENDCHAR
STARTCHAR comma
ENCODING 44
SWIDTH 259 0
DWIDTH 7 0
BBX 16 27 -1 -6
BITMAP
0000
0000
0000
0000
0000
0000
0000
0000
0000
0000
0000
0000
0000
0000
0000
0000
0000
0180
0780
0780
0380
0300
0300
0600
0000
0000
0000
ENDCHAR
STARTCHAR minus
ENCODING 45
SWIDTH 333 0
DWIDTH 9 0
BBX 18 27 -1 -6
BITMAP
000000
000000
000000
000000
000000
000000
000000
000000
000000
000000
000000
000000
000000
03F800
03F800
000000
000000
000000
000000
000000
000000
000000
000000
000000
000000
000000
000000
ENDCHAR
STARTCHAR period
ENCODING 46
SWIDTH 259 0
DWIDTH 7 0
BBX 16 27 -1 -6
BITMAP
0000
0000
0000
0000
0000
0000
0000
0000
0000
0000
0000
0000
0000
0000
0000
0000
0000
0180
0780
0780
0300
0000
0000
0000
0000
0000
0000
ENDCHAR
STARTCHAR slash
ENCODING 47
SWIDTH 296 0
DWIDTH 8 0
BBX 17 27 -1 -6
BITMAP
000000
000000
000000
000000
000700
000700
000E00
001C00
001C00
003800
007000
007000
00E000
01C000
01C000
038000
070000
070000
0E0000
1C0000
1C0000
380000
000000
000000
000000
000000
000000
ENDCHAR
STARTCHAR zero
ENCODING 48
SWIDTH 481 0
DWIDTH 13 0
BBX 22 27 -1 -6
BITMAP
000000
000000
000000
000000
000000
000F80
003B80
0071C0
0071C0
01C1C0
01C1C0
01C1C0
038380
038380
038380
070700
070700
038E00
071C00
03B800
01F000
000000
000000
000000
000000
000000
000000
ENDCHAR
STARTCHAR one
ENCODING 49
SWIDTH 481 0
DWIDTH 13 0
BBX 22 27 -1 -6
BITMAP
000000
000000
000000
000000
000000
000300
000E00
001E00
003E00
001C00
001C00
001C00
003800
003800
003800
007000
007000
007000
00E000
01F000
03F800
000000
000000
000000
000000
000000
000000
ENDCHAR
STARTCHAR two
ENCODING 50
SWIDTH 481 0
DWIDTH 13 0
BBX 22 27 -1 -6
BITMAP
000000
000000
000000
000000
000000
000F80
003F80
0073C0
0061C0
000380
000380
000380
000E00
000E00
001C00
007000
006000
00C300
030E00
07FC00
0FFC00
000000
000000
000000
000000
000000
000000
ENDCHAR
STARTCHAR three
ENCODING 51
SWIDTH 481 0
DWIDTH 13 0
BBX 22 27 -1 -6
BITMAP
000000
000000
000000
000000
000000
000F80
003F80
0073C0
0001C0
000380
000700
001F00
000F00
000700
000380
000700
000700
000F00
0F3C00
0FF800
03F000
000000
000000
000000
000000
000000
000000
ENDCHAR
STARTCHAR four
ENCODING 52
SWIDTH 481 0
DWIDTH 13 0
BBX 22 27 -1 -6
BITMAP
000000
000000
000000
000000
000000
0001E0
0003C0
0007C0
000FC0
003B80
003380
007380
01C700
038700
038700
07FF80
07FF80
000E00
001C00
001C00
001C00
000000
000000
000000
000000
000000
000000
ENDCHAR
STARTCHAR five
ENCODING 53
SWIDTH 481 0
DWIDTH 13 0
BBX 22 27 -1 -6
BITMAP
000000
000000
000000
000000
000000
001FE0
003F80
003000
006000
00C000
00FE00
00FF80
000F00
000780
000380
000700
000700
000700
0F1C00
0FBC00
03F000
000000
000000
000000
000000
000000
000000
ENDCHAR
STARTCHAR six
ENCODING 54
SWIDTH 481 0
DWIDTH 13 0
BBX 22 27 -1 -6
BITMAP
000000
000000
000000
000000
000000
0001C0
000E00
001C00
003800
00E000
00E000
01FE00
03EF00
03C700
038380
070700
070700
070700
071C00
07BC00
01F000
000000
000000
000000
000000
000000
000000
ENDCHAR
STARTCHAR seven
ENCODING 55
SWIDTH 481 0
DWIDTH 13 0
BBX 22 27 -1 -6
BITMAP
000000
000000
000000
000000
000000
003FF0
007FC0
00E1C0
00C1C0
000700
000700
000600
001C00
001C00
003800
007000
007000
00E000
01C000
038000
038000
000000
000000
000000
000000
000000
000000
ENDCHAR
STARTCHAR eight
ENCODING 56
SWIDTH 481 0
DWIDTH 13 0
BBX 22 27 -1 -6
BITMAP
000000
000000
000000
000000
000000
001F80
007380
00E1C0
00E1C0
01E380
00F380
007F00
00FE00
01FF00
018F00
070F00
070700
070700
071C00
07BC00
01F000
000000
000000
000000
000000
000000
000000
ENDCHAR
STARTCHAR nine
ENCODING 57
SWIDTH 481 0
DWIDTH 13 0
BBX 22 27 -1 -6
BITMAP
000000
000000
000000
000000
000000
000F80
007BC0
0071C0
00E0E0
01C1C0
01C1C0
01C1C0
01C780
01EF80
007F80
000E00
000E00
001C00
007000
00E000
038000
000000
000000
000000
000000
000000
000000
ENDCHAR
STARTCHAR colon
ENCODING 58
SWIDTH 296 0
DWIDTH 8 0
BBX 17 27 -1 -6
BITMAP
000000
000000
000000
000000
000000
000000
000000
000000
000000
000000
006000
00F000
01E000
00C000
000000
000000
000000
018000
078000
078000
030000
000000
000000
000000
000000
000000
000000
ENDCHAR
STARTCHAR semicolon
ENCODING 59
SWIDTH 296 0
DWIDTH 8 0
BBX 17 27 -1 -6
BITMAP
000000
000000
000000
000000
000000
000000
000000
000000
000000
000000
006000
00F000
01E000
00C000
000000
000000
000000
018000
078000
078000
038000
030000
030000
060000
000000
000000
000000
ENDCHAR
STARTCHAR less
ENCODING 60
SWIDTH 555 0
DWIDTH 15 0
BBX 24 27 -1 -6
BITMAP
000000
000000
000000
000000
000000
000000
000000
000070
0001E0
000780
001E00
003C00
01E000
03C000
01E000
00F000
007800
001E00
001E00
000700
000000
000000
000000
000000
000000
000000
000000
ENDCHAR
STARTCHAR equal
ENCODING 61
SWIDTH 555 0
DWIDTH 15 0
BBX 24 27 -1 -6
BITMAP
000000
000000
000000
000000
000000
000000
000000
000000
000000
000000
01FFF0
01FFF0
000000
000000
000000
07FFC0
07FFC0
000000
000000
000000
000000
000000
000000
000000
000000
000000
000000
ENDCHAR
STARTCHAR greater
ENCODING 62
SWIDTH 555 0
DWIDTH 15 0
BBX 24 27 -1 -6
BITMAP
000000
000000
000000
000000
000000
000000
000000
007000
003C00
003C00
000F00
000780
0003C0
0001E0
0003C0
001E00
003C00
00F000
03C000
070000
000000
000000
000000
000000
000000
000000
000000
ENDCHAR
STARTCHAR question
ENCODING 63
SWIDTH 444 0
DWIDTH 12 0
BBX 21 27 -1 -6
BITMAP
000000
000000
000000
000000
001F80
003BC0
00E3C0
00F3C0
00F3C0
00C700
000700
000E00
003800
003000
003000
006000
000000
006000
01E000
01E000
00C000
000000
000000
000000
000000
000000
000000
ENDCHAR
STARTCHAR at
ENCODING 64
SWIDTH 888 0
DWIDTH 24 0
BBX 33 27 -1 -6
BITMAP
0000000000
0000000000
0000000000
0000000000
0000000000
0000000000
0000000000
0001FE0000
0007878000
003C03C000
007000E000
00E1F87000
01C73CE000
038E1C7000
039C1C7000
073870E000
073871C000
071CFBC000
071FFE0000
0700000000
0380000000
03C0000000
00F0E00000
003F800000
0000000000
0000000000
0000000000
ENDCHAR
STARTCHAR A
ENCODING 65
SWIDTH 666 0
DWIDTH 18 0
BBX 27 27 -1 -6
BITMAP
00000000
00000000
00000000
00000000
00000000
0000E000
0001C000
0003E000
0003E000
000EE000
000CE000
000CE000
0038E000
0030E000
0030E000
00FFE000
00C0E000
01C07000
0300E000
0300E000
0FC3F800
00000000
00000000
00000000
00000000
00000000
00000000
ENDCHAR
STARTCHAR B
ENCODING 66
SWIDTH 629 0
DWIDTH 17 0
BBX 26 27 -1 -6
BITMAP
00000000
00000000
00000000
00000000
00000000
007FF800
00383800
00381C00
00381C00
00703800
00703800
00707000
00FFE000
00E0F000
00E07000
01C07000
01C07000
01C07000
0381C000
0383C000
0FFF0000
00000000
00000000
00000000
00000000
00000000
00000000
ENDCHAR
STARTCHAR C
ENCODING 67
SWIDTH 592 0
DWIDTH 16 0
BBX 25 27 -1 -6
BITMAP
00000000
00000000
00000000
00000000
00000000
0003F600
001E7C00
00381C00
00700C00
00E01800
01C00000
01C00000
03800000
03800000
03800000
07000000
03800000
03806000
03818000
01E70000
007C0000
00000000
00000000
00000000
00000000
00000000
00000000
ENDCHAR
STARTCHAR D
ENCODING 68
SWIDTH 666 0
DWIDTH 18 0
BBX 27 27 -1 -6
BITMAP
00000000
00000000
00000000
00000000
00000000
007FF000
00387800
00381C00
00380E00
00701C00
00700E00
00700E00
00E01C00
00E01C00
00E01C00
01C03800
01C07000
01C07000
0381C000
03878000
0FFE0000
00000000
00000000
00000000
00000000
00000000
00000000
ENDCHAR
STARTCHAR E
ENCODING 69
SWIDTH 555 0
DWIDTH 15 0
BBX 24 27 -1 -6
BITMAP
000000
000000
000000
000000
000000
007FF8
003870
003830
003800
007000
007180
007180
00FF00
00E300
00E300
01C000
01C000
01C000
038180
038380
0FFF00
000000
000000
000000
000000
000000
000000
ENDCHAR
STARTCHAR F
ENCODING 70
SWIDTH 518 0
DWIDTH 14 0
BBX 23 27 -1 -6
BITMAP
000000
000000
000000
000000
000000
007FF8
003870
003830
003800
007000
007180
007180
00FF00
00E300
00E300
01C000
01C000
01C000
038000
038000
0FE000
000000
000000
000000
000000
000000
000000
ENDCHAR
STARTCHAR G
ENCODING 71
SWIDTH 666 0
DWIDTH 18 0
BBX 27 27 -1 -6
BITMAP
00000000
00000000
00000000
00000000
00000000
0003F600
001E3C00
00381C00
00700C00
00E01800
01C00000
01C00000
03800000
0380FE00
03803800
07007000
03807000
03807000
0380C000
01E38000
007E0000
00000000
00000000
00000000
00000000
00000000
00000000
ENDCHAR
STARTCHAR H
ENCODING 72
SWIDTH 666 0
DWIDTH 18 0
BBX 27 27 -1 -6
BITMAP
00000000
00000000
00000000
00000000
00000000
007F3F80
00381C00
00381C00
00381C00
00703800
00703800
00703800
00FFF000
00E07000
00E07000
01C0E000
01C0E000
01C0E000
0381C000
0381C000
0FE7F000
00000000
00000000
00000000
00000000
00000000
00000000
ENDCHAR
STARTCHAR I
ENCODING 73
SWIDTH 333 0
DWIDTH 9 0
BBX 18 27 -1 -6
BITMAP
000000
000000
000000
000000
000000
007F00
003800
003800
003800
007000
007000
007000
00E000
00E000
00E000
01C000
01C000
01C000
038000
038000
0FE000
000000
000000
000000
000000
000000
000000
ENDCHAR
STARTCHAR J
ENCODING 74
SWIDTH 407 0
DWIDTH 11 0
BBX 20 27 -1 -6
BITMAP
000000
000000
000000
000000
000000
001FC0
000E00
000E00
000E00
001C00
001C00
001C00
003800
003800
003800
007000
007000
007000
0EE000
0EE000
07C000
000000
000000
000000
000000
000000
000000
ENDCHAR
STARTCHAR K
ENCODING 75
SWIDTH 666 0
DWIDTH 18 0
BBX 27 27 -1 -6
BITMAP
00000000
00000000
00000000
00000000
00000000
007F3F00
00383800
00387000
0038E000
00738000
00770000
007F0000
00FE0000
00F70000
00E38000
01C70000
01C38000
01C1C000
03838000
0381C000
0FE7F800
00000000
00000000
00000000
00000000
00000000
00000000
ENDCHAR
STARTCHAR L
ENCODING 76
SWIDTH 555 0
DWIDTH 15 0
BBX 24 27 -1 -6
BITMAP
000000
000000
000000
000000
000000
007F80
003800
003800
003800
007000
007000
007000
00E000
00E000
00E000
01C000
01C000
01C000
038180
038380
0FFF00
000000
000000
000000
000000
000000
000000
ENDCHAR
STARTCHAR M
ENCODING 77
SWIDTH 814 0
DWIDTH 22 0
BBX 31 27 -1 -6
BITMAP
00000000
00000000
00000000
00000000
00000000
007E01F8
003C03C0
003E03C0
003E07C0
007C0F80
006E0F80
006E1F80
00CE3700
00CE3700
00CE7700
018ECE00
018FCE00
01878E00
030F1C00
030F1C00
0FC63F00
00000000
00000000
00000000
00000000
00000000
00000000
ENDCHAR
STARTCHAR N
ENCODING 78
SWIDTH 666 0
DWIDTH 18 0
BBX 27 27 -1 -6
BITMAP
00000000
00000000
00000000
00000000
00000000
007C1F80
00380C00
003C0C00
003E0C00
007C1800
006E1800
00671800
00CE3000
00C73000
00C3B000
01876000
0183E000
0181E000
0303C000
0301C000
0FC0C000
00000000
00000000
00000000
00000000
00000000
00000000
ENDCHAR
STARTCHAR O
ENCODING 79
SWIDTH 666 0
DWIDTH 18 0
BBX 27 27 -1 -6
BITMAP
00000000
00000000
00000000
00000000
00000000
0003F000
001E7800
00381C00
00700E00
00E01C00
01C00E00
01C00E00
03801C00
03801C00
03801C00
07003800
03807000
03807000
0381C000
01E78000
007E0000
00000000
00000000
00000000
00000000
00000000
00000000
ENDCHAR
STARTCHAR P
ENCODING 80
SWIDTH 555 0
DWIDTH 15 0
BBX 24 27 -1 -6
BITMAP
000000
000000
000000
000000
000000
007FE0
0038F0
003870
003838
007070
007070
0070E0
00E3C0
00FF00
00E000
01C000
01C000
01C000
038000
038000
0FE000
000000
000000
000000
000000
000000
000000
ENDCHAR
STARTCHAR Q
ENCODING 81
SWIDTH 666 0
DWIDTH 18 0
BBX 27 27 -1 -6
BITMAP
00000000
00000000
00000000
00000000
00000000
0003F000
001E7800
00381C00
00700E00
00E01C00
01C00E00
01C00E00
03801C00
03801C00
03801C00
07003800
03807000
03807000
0381C000
01E78000
007E0000
007C0000
003E0000
000FC000
00000000
00000000
00000000
ENDCHAR
STARTCHAR R
ENCODING 82
SWIDTH 629 0
DWIDTH 17 0
BBX 26 27 -1 -6
BITMAP
00000000
00000000
00000000
00000000
00000000
007FF000
00387800
00383800
00381C00
00703800
00703800
00707000
00E1E000
00FF8000
00E38000
01C78000
01C38000
01C3C000
03838000
0383C000
0FE1F000
00000000
00000000
00000000
00000000
00000000
00000000
ENDCHAR
STARTCHAR S
ENCODING 83
SWIDTH 518 0
DWIDTH 14 0
BBX 23 27 -1 -6
BITMAP
000000
000000
000000
000000
000000
001FF0
0071E0
00E0E0
00E060
01E0C0
00F000
00FC00
007E00
001F80
000780
000780
060380
060380
0E0E00
0F1E00
0FF800
000000
000000
000000
000000
000000
000000
ENDCHAR
STARTCHAR T
ENCODING 84
SWIDTH 629 0
DWIDTH 17 0
BBX 26 27 -1 -6
BITMAP
00000000
00000000
00000000
00000000
00000000
007FFF00
00E38E00
00C38600
00C38600
00070000
00070000
00070000
000E0000
000E0000
000E0000
001C0000
001C0000
001C0000
00380000
00380000
00FE0000
00000000
00000000
00000000
00000000
00000000
00000000
ENDCHAR
STARTCHAR U
ENCODING 85
SWIDTH 666 0
DWIDTH 18 0
BBX 27 27 -1 -6
BITMAP
00000000
00000000
00000000
00000000
00000000
007F1F80
00380C00
00380C00
00380C00
00701800
00701800
00701800
00E03000
00E03000
00E03000
01C06000
01C06000
01C06000
01C18000
01E38000
007E0000
00000000
00000000
00000000
00000000
00000000
00000000
ENDCHAR
STARTCHAR V
ENCODING 86
SWIDTH 666 0
DWIDTH 18 0
BBX 27 27 -1 -6
BITMAP
00000000
00000000
00000000
00000000
00000000
00FE1FC0
00E01E00
00700C00
00700C00
00703000
00703000
00386000
0070C000
0038C000
00398000
003B0000
003E0000
001E0000
003C0000
00180000
00180000
00000000
00000000
00000000
00000000
00000000
00000000
ENDCHAR
STARTCHAR W
ENCODING 87
SWIDTH 851 0
DWIDTH 23 0
BBX 32 27 -1 -6
BITMAP
00000000
00000000
00000000
00000000
00000000
00FDFFFE
00F0F0F0
00707060
00707060
00E0E0C0
0071F180
0071F180
00E3E300
00767600
00767600
00ECEC00
00787800
00787800
0070F000
00606000
00606000
00000000
00000000
00000000
00000000
00000000
00000000
ENDCHAR
STARTCHAR X
ENCODING 88
SWIDTH 703 0
DWIDTH 19 0
BBX 28 27 -1 -6
BITMAP
00000000
00000000
00000000
00000000
00000000
007F9F80
003C0C00
001C1800
000E1800
000E6000
0007C000
00038000
00078000
00078000
000DC000
0031C000
0031C000
0060E000
0180E000
03C0E000
0FF3F800
00000000
00000000
00000000
00000000
00000000
00000000
ENDCHAR
STARTCHAR Y
ENCODING 89
SWIDTH 703 0
DWIDTH 19 0
BBX 28 27 -1 -6
BITMAP
00000000
00000000
00000000
00000000
00000000
00FF0FE0
00780700
003C0E00
001C0C00
003C3800
001E7000
000E6000
001FC000
000F8000
00070000
000E0000
000E0000
000E0000
001C0000
001C0000
007F0000
00000000
00000000
00000000
00000000
00000000
00000000
ENDCHAR
STARTCHAR Z
ENCODING 90
SWIDTH 592 0
DWIDTH 16 0
BBX 25 27 -1 -6
BITMAP
00000000
00000000
00000000
00000000
00000000
003FFE00
00707800
00607000
0000F000
0003C000
00038000
00078000
001E0000
001C0000
003C0000
00F00000
00E00000
01E00000
0780C000
0701C000
0FFFC000
00000000
00000000
00000000
00000000
00000000
00000000
ENDCHAR
STARTCHAR bracketleft
ENCODING 91
SWIDTH 333 0
DWIDTH 9 0
BBX 18 27 -1 -6
BITMAP
000000
000000
000000
000000
003F00
003C00
007000
007000
007000
00E000
00E000
00E000
01C000
01C000
01C000
038000
038000
038000
070000
070000
070000
0E0000
0E0000
0E0000
1E0000
1F8000
000000
ENDCHAR
STARTCHAR backslash
ENCODING 92
SWIDTH 296 0
DWIDTH 8 0
BBX 17 27 -1 -6
BITMAP
000000
000000
000000
000000
00E000
00E000
01C000
00E000
00E000
01C000
00E000
00E000
01C000
00E000
00E000
01C000
00E000
00E000
01C000
00E000
00E000
000000
000000
000000
000000
000000
000000
ENDCHAR
STARTCHAR bracketright
ENCODING 93
SWIDTH 333 0
DWIDTH 9 0
BBX 18 27 -1 -6
BITMAP
000000
000000
000000
000000
007E00
001E00
001C00
001C00
001C00
003800
003800
003800
007000
007000
007000
00E000
00E000
00E000
01C000
01C000
01C000
038000
038000
038000
0F0000
3F0000
000000
ENDCHAR
STARTCHAR asciicircum
ENCODING 94
SWIDTH 444 0
DWIDTH 12 0
BBX 21 27 -1 -6
BITMAP
000000
000000
000000
000000
000600
000F00
003F00
007380
00E1C0
000000
000000
000000
000000
000000
000000
000000
000000
000000
000000
000000
000000
000000
000000
000000
000000
000000
000000
ENDCHAR
STARTCHAR underscore
ENCODING 95
SWIDTH 481 0
DWIDTH 13 0
BBX 22 27 -1 -6
BITMAP
000000
000000
000000
000000
000000
000000
000000
000000
000000
000000
000000
000000
000000
000000
000000
000000
000000
000000
000000
000000
000000
000000
000000
3FFE00
7FFC00
000000
000000
ENDCHAR
STARTCHAR quoteleft
ENCODING 96
SWIDTH 333 0
DWIDTH 9 0
BBX 18 27 -1 -6
BITMAP
000000
000000
000000
000000
003800
001C00
000C00
000000
000000
000000
000000
000000
000000
000000
000000
000000
000000
000000
000000
000000
000000
000000
000000
000000
000000
000000
000000
ENDCHAR
STARTCHAR a
ENCODING 97
SWIDTH 444 0
DWIDTH 12 0
BBX 21 27 -1 -6
BITMAP
000000
000000
000000
000000
000000
000000
000000
000000
000000
000000
007E00
00E700
01CE00
000E00
003E00
01FC00
039C00
071C00
0E7E00
0FFE00
07DC00
000000
000000
000000
000000
000000
000000
ENDCHAR
STARTCHAR b
ENCODING 98
SWIDTH 444 0
DWIDTH 12 0
BBX 21 27 -1 -6
BITMAP
000000
000000
000000
000000
001800
007800
007000
007000
007000
00E000
00FF00
00F380
01C380
01C380
01C380
038700
038700
038700
070E00
039C00
01F000
000000
000000
000000
000000
000000
000000
ENDCHAR
STARTCHAR c
ENCODING 99
SWIDTH 407 0
DWIDTH 11 0
BBX 20 27 -1 -6
BITMAP
000000
000000
000000
000000
000000
000000
000000
000000
000000
000000
003F00
00E380
018700
038000
038000
070000
070000
070000
070C00
039C00
01F800
000000
000000
000000
000000
000000
000000
ENDCHAR
STARTCHAR d
ENCODING 100
SWIDTH 444 0
DWIDTH 12 0
BBX 21 27 -1 -6
BITMAP
000000
000000
000000
000000
000060
0001E0
0001C0
0001C0
0001C0
000380
007F80
00E780
038700
038700
038700
070E00
070E00
070E00
0E1C00
073E00
03F800
000000
000000
000000
000000
000000
000000
ENDCHAR
STARTCHAR e
ENCODING 101
SWIDTH 407 0
DWIDTH 11 0
BBX 20 27 -1 -6
BITMAP
000000
000000
000000
000000
000000
000000
000000
000000
000000
000000
007E00
00E700
038700
038700
03FF00
070000
070000
070000
071C00
07B800
01F000
000000
000000
000000
000000
000000
000000
ENDCHAR
STARTCHAR f
ENCODING 102
SWIDTH 296 0
DWIDTH 8 0
BBX 17 27 -1 -6
BITMAP
000000
000000
000000
000000
001E00
003F00
007E00
007000
007000
00E000
01F800
00E000
01C000
01C000
01C000
038000
038000
038000
070000
070000
0FC000
000000
000000
000000
000000
000000
000000
ENDCHAR
STARTCHAR g
ENCODING 103
SWIDTH 481 0
DWIDTH 13 0
BBX 22 27 -1 -6
BITMAP
000000
000000
000000
000000
000000
000000
000000
000000
000000
000000
007C00
00EF00
038F80
038E00
038E00
071C00
03B800
03F000
0E0000
0F0000
07F800
063C00
1C1E00
380E00
701C00
783800
3FC000
ENDCHAR
STARTCHAR h
ENCODING 104
SWIDTH 444 0
DWIDTH 12 0
BBX 21 27 -1 -6
BITMAP
000000
000000
000000
000000
001800
007800
007000
007000
007000
00E000
00EF00
00FF80
01E700
01C700
01C700
038E00
038E00
038E00
071C00
071C00
0FBE00
000000
000000
000000
000000
000000
000000
ENDCHAR
STARTCHAR i
ENCODING 105
SWIDTH 222 0
DWIDTH 6 0
BBX 15 27 -1 -6
BITMAP
0000
0000
0000
0000
0038
0038
0000
0000
0000
0000
0060
01E0
01C0
01C0
01C0
0380
0380
0380
0700
0700
0F80
0000
0000
0000
0000
0000
0000
ENDCHAR
STARTCHAR j
ENCODING 106
SWIDTH 222 0
DWIDTH 6 0
BBX 15 27 -1 -6
BITMAP
0000
0000
0000
0000
0038
0038
0000
0000
0000
0000
0030
00F0
00E0
00E0
00E0
01C0
01C0
01C0
0380
0380
0380
0700
0700
3F00
7E00
3C00
0000
ENDCHAR
STARTCHAR k
ENCODING 107
SWIDTH 481 0
DWIDTH 13 0
BBX 22 27 -1 -6
BITMAP
000000
000000
000000
000000
001800
007800
007000
007000
007000
00E000
00EF80
00E600
01D800
01F000
01F000
03E000
03F000
03B800
073800
071C00
0FBF00
000000
000000
000000
000000
000000
000000
ENDCHAR
STARTCHAR l
ENCODING 108
SWIDTH 222 0
DWIDTH 6 0
BBX 15 27 -1 -6
BITMAP
0000
0000
0000
0000
0018
0078
0070
0070
0070
00E0
00E0
00E0
01C0
01C0
01C0
0380
0380
0380
0700
0700
0F80
0000
0000
0000
0000
0000
0000
ENDCHAR
STARTCHAR m
ENCODING 109
SWIDTH 666 0
DWIDTH 18 0
BBX 27 27 -1 -6
BITMAP
00000000
00000000
00000000
00000000
00000000
00000000
00000000
00000000
00000000
00000000
006F3C00
01FFFE00
01E79C00
01C71C00
01C71C00
038E3800
038E3800
038E3800
071C7000
071C7000
0FBEF800
00000000
00000000
00000000
00000000
00000000
00000000
ENDCHAR
STARTCHAR n
ENCODING 110
SWIDTH 444 0
DWIDTH 12 0
BBX 21 27 -1 -6
BITMAP
000000
000000
000000
000000
000000
000000
000000
000000
000000
000000
006F00
01FF80
01E700
01C700
01C700
038E00
038E00
038E00
071C00
071C00
0FBE00
000000
000000
000000
000000
000000
000000
ENDCHAR
STARTCHAR o
ENCODING 111
SWIDTH 444 0
DWIDTH 12 0
BBX 21 27 -1 -6
BITMAP
000000
000000
000000
000000
000000
000000
000000
000000
000000
000000
001E00
007700
01C700
038380
038380
070700
070700
070700
071C00
03B800
01E000
000000
000000
000000
000000
000000
000000
ENDCHAR
STARTCHAR p
ENCODING 112
SWIDTH 444 0
DWIDTH 12 0
BBX 21 27 -1 -6
BITMAP
000000
000000
000000
000000
000000
000000
000000
000000
000000
000000
007F00
01F380
01C380
01C380
01C380
038700
038700
038700
070E00
079C00
07F000
0E0000
0E0000
0E0000
1C0000
3E0000
000000
ENDCHAR
STARTCHAR q
ENCODING 113
SWIDTH 444 0
DWIDTH 12 0
BBX 21 27 -1 -6
BITMAP
000000
000000
000000
000000
000000
000000
000000
000000
000000
000000
007F80
00E780
038700
038700
038700
070E00
070E00
070E00
0E1C00
073C00
03FC00
003800
003800
003800
007000
00F800
000000
ENDCHAR
STARTCHAR r
ENCODING 114
SWIDTH 333 0
DWIDTH 9 0
BBX 18 27 -1 -6
BITMAP
000000
000000
000000
000000
000000
000000
000000
000000
000000
000000
007E00
01FE00
01C000
01C000
01C000
038000
038000
038000
070000
070000
0F8000
000000
000000
000000
000000
000000
000000
ENDCHAR
STARTCHAR s
ENCODING 115
SWIDTH 370 0
DWIDTH 10 0
BBX 19 27 -1 -6
BITMAP
000000
000000
000000
000000
000000
000000
000000
000000
000000
000000
007E00
00EE00
038C00
03C000
01F000
00F800
003C00
061C00
0E3800
0F7000
0DE000
000000
000000
000000
000000
000000
000000
ENDCHAR
STARTCHAR t
ENCODING 116
SWIDTH 259 0
DWIDTH 7 0
BBX 16 27 -1 -6
BITMAP
0000
0000
0000
0000
0000
0000
0030
0030
0070
00E0
01F8
00E0
01C0
01C0
01C0
0380
0380
0380
0700
07C0
0380
0000
0000
0000
0000
0000
0000
ENDCHAR
STARTCHAR u
ENCODING 117
SWIDTH 444 0
DWIDTH 12 0
BBX 21 27 -1 -6
BITMAP
000000
000000
000000
000000
000000
000000
000000
000000
000000
000000
01E780
00E380
01C700
01C700
01C700
038E00
038E00
038E00
073C00
03FE00
01D800
000000
000000
000000
000000
000000
000000
ENDCHAR
STARTCHAR v
ENCODING 118
SWIDTH 444 0
DWIDTH 12 0
BBX 21 27 -1 -6
BITMAP
000000
000000
000000
000000
000000
000000
000000
000000
000000
000000
03E3C0
01C180
038300
01C600
01C600
01D800
01D800
00F000
01E000
00C000
00C000
000000
000000
000000
000000
000000
000000
ENDCHAR
STARTCHAR w
ENCODING 119
SWIDTH 666 0
DWIDTH 18 0
BBX 27 27 -1 -6
BITMAP
00000000
00000000
00000000
00000000
00000000
00000000
00000000
00000000
00000000
00000000
03EF8F00
01C70600
038E0C00
01C71800
01C71800
01DF6000
01DF6000
00F3C000
01E78000
00C30000
00C30000
00000000
00000000
00000000
00000000
00000000
00000000
ENDCHAR
STARTCHAR x
ENCODING 120
SWIDTH 481 0
DWIDTH 13 0
BBX 22 27 -1 -6
BITMAP
000000
000000
000000
000000
000000
000000
000000
000000
000000
000000
01F7C0
00E300
00EC00
00FC00
007800
007000
007800
00F800
033800
071C00
0FBE00
000000
000000
000000
000000
000000
000000
ENDCHAR
STARTCHAR y
ENCODING 121
SWIDTH 518 0
DWIDTH 14 0
BBX 23 27 -1 -6
BITMAP
000000
000000
000000
000000
000000
000000
000000
000000
000000
000000
01F1E0
00E0C0
01C180
00E300
00E300
00EC00
00EC00
007800
00F000
006000
006000
018000
018000
030000
3E0000
3C0000
000000
ENDCHAR
STARTCHAR z
ENCODING 122
SWIDTH 444 0
DWIDTH 12 0
BBX 21 27 -1 -6
BITMAP
000000
000000
000000
000000
000000
000000
000000
000000
000000
000000
00FF80
00C700
019C00
001C00
003800
00E000
00E000
01C000
070C00
070C00
0FFC00
000000
000000
000000
000000
000000
000000
ENDCHAR
STARTCHAR braceleft
ENCODING 123
SWIDTH 407 0
DWIDTH 11 0
BBX 20 27 -1 -6
BITMAP
000000
000000
000000
000000
000180
000700
001C00
001C00
001C00
003800
003800
003800
007000
007000
007000
01C000
00E000
00E000
01C000
01C000
01C000
038000
038000
038000
030000
018000
000000
ENDCHAR
STARTCHAR bar
ENCODING 124
SWIDTH 259 0
DWIDTH 7 0
BBX 16 27 -1 -6
BITMAP
0000
0000
0000
0000
0038
0038
0070
0070
0070
00E0
00E0
00E0
01C0
01C0
01C0
0380
0380
0380
0700
0700
0700
0000
0000
0000
0000
0000
0000
ENDCHAR
STARTCHAR braceright
ENCODING 125
SWIDTH 407 0
DWIDTH 11 0
BBX 20 27 -1 -6
BITMAP
000000
000000
000000
000000
001800
000C00
001C00
001C00
001C00
003800
003800
003800
007000
007000
007000
007000
00E000
00E000
01C000
01C000
01C000
038000
038000
038000
060000
0C0000
000000
ENDCHAR
STARTCHAR asciitilde
ENCODING 126
SWIDTH 481 0
DWIDTH 13 0
BBX 22 27 -1 -6
BITMAP
000000
000000
000000
000000
001E30
003F70
00EFC0
00C780
000000
000000
000000
000000
000000
000000
000000
000000
000000
000000
000000
000000
000000
000000
000000
000000
000000
000000
000000
ENDCHAR
STARTCHAR C177
ENCODING -1
SWIDTH 333 0
DWIDTH 9 0
BBX 18 27 -1 -6
BITMAP
000000
000000
000000
000000
003E00
003E00
007C00
007C00
007C00
00F800
00F800
00F800
01F000
01F000
01F000
03E000
03E000
03E000
07C000
07C000
07C000
000000
000000
000000
000000
000000
000000
ENDCHAR
STARTCHAR C200
ENCODING -1
SWIDTH 333 0
DWIDTH 9 0
BBX 18 27 -1 -6
BITMAP
000000
000000
000000
000000
003E00
003E00
007C00
007C00
007C00
00F800
00F800
00F800
01F000
01F000
01F000
03E000
03E000
03E000
07C000
07C000
07C000
000000
000000
000000
000000
000000
000000
ENDCHAR
STARTCHAR C201
ENCODING -1
SWIDTH 333 0
DWIDTH 9 0
BBX 18 27 -1 -6
BITMAP
000000
000000
000000
000000
003E00
003E00
007C00
007C00
007C00
00F800
00F800
00F800
01F000
01F000
01F000
03E000
03E000
03E000
07C000
07C000
07C000
000000
000000
000000
000000
000000
000000
ENDCHAR
STARTCHAR C202
ENCODING -1
SWIDTH 333 0
DWIDTH 9 0
BBX 18 27 -1 -6
BITMAP
000000
000000
000000
000000
003E00
003E00
007C00
007C00
007C00
00F800
00F800
00F800
01F000
01F000
01F000
03E000
03E000
03E000
07C000
07C000
07C000
000000
000000
000000
000000
000000
000000
ENDCHAR
STARTCHAR C203
ENCODING -1
SWIDTH 333 0
DWIDTH 9 0
BBX 18 27 -1 -6
BITMAP
000000
000000
000000
000000
003E00
003E00
007C00
007C00
007C00
00F800
00F800
00F800
01F000
01F000
01F000
03E000
03E000
03E000
07C000
07C000
07C000
000000
000000
000000
000000
000000
000000
ENDCHAR
STARTCHAR C204
ENCODING -1
SWIDTH 333 0
DWIDTH 9 0
BBX 18 27 -1 -6
BITMAP
000000
000000
000000
000000
003E00
003E00
007C00
007C00
007C00
00F800
00F800
00F800
01F000
01F000
01F000
03E000
03E000
03E000
07C000
07C000
07C000
000000
000000
000000
000000
000000
000000
ENDCHAR
STARTCHAR C205
ENCODING -1
SWIDTH 333 0
DWIDTH 9 0
BBX 18 27 -1 -6
BITMAP
000000
000000
000000
000000
003E00
003E00
007C00
007C00
007C00
00F800
00F800
00F800
01F000
01F000
01F000
03E000
03E000
03E000
07C000
07C000
07C000
000000
000000
000000
000000
000000
000000
ENDCHAR
STARTCHAR C206
ENCODING -1
SWIDTH 333 0
DWIDTH 9 0
BBX 18 27 -1 -6
BITMAP
000000
000000
000000
000000
003E00
003E00
007C00
007C00
007C00
00F800
00F800
00F800
01F000
01F000
01F000
03E000
03E000
03E000
07C000
07C000
07C000
000000
000000
000000
000000
000000
000000
ENDCHAR
STARTCHAR C207
ENCODING -1
SWIDTH 333 0
DWIDTH 9 0
BBX 18 27 -1 -6
BITMAP
000000
000000
000000
000000
003E00
003E00
007C00
007C00
007C00
00F800
00F800
00F800
01F000
01F000
01F000
03E000
03E000
03E000
07C000
07C000
07C000
000000
000000
000000
000000
000000
000000
ENDCHAR
STARTCHAR C210
ENCODING -1
SWIDTH 333 0
DWIDTH 9 0
BBX 18 27 -1 -6
BITMAP
000000
000000
000000
000000
003E00
003E00
007C00
007C00
007C00
00F800
00F800
00F800
01F000
01F000
01F000
03E000
03E000
03E000
07C000
07C000
07C000
000000
000000
000000
000000
000000
000000
ENDCHAR
STARTCHAR C211
ENCODING -1
SWIDTH 333 0
DWIDTH 9 0
BBX 18 27 -1 -6
BITMAP
000000
000000
000000
000000
003E00
003E00
007C00
007C00
007C00
00F800
00F800
00F800
01F000
01F000
01F000
03E000
03E000
03E000
07C000
07C000
07C000
000000
000000
000000
000000
000000
000000
ENDCHAR
STARTCHAR C212
ENCODING -1
SWIDTH 333 0
DWIDTH 9 0
BBX 18 27 -1 -6
BITMAP
000000
000000
000000
000000
003E00
003E00
007C00
007C00
007C00
00F800
00F800
00F800
01F000
01F000
01F000
03E000
03E000
03E000
07C000
07C000
07C000
000000
000000
000000
000000
000000
000000
ENDCHAR
STARTCHAR C213
ENCODING -1
SWIDTH 333 0
DWIDTH 9 0
BBX 18 27 -1 -6
BITMAP
000000
000000
000000
000000
003E00
003E00
007C00
007C00
007C00
00F800
00F800
00F800
01F000
01F000
01F000
03E000
03E000
03E000
07C000
07C000
07C000
000000
000000
000000
000000
000000
000000
ENDCHAR
STARTCHAR C214
ENCODING -1
SWIDTH 333 0
DWIDTH 9 0
BBX 18 27 -1 -6
BITMAP
000000
000000
000000
000000
003E00
003E00
007C00
007C00
007C00
00F800
00F800
00F800
01F000
01F000
01F000
03E000
03E000
03E000
07C000
07C000
07C000
000000
000000
000000
000000
000000
000000
ENDCHAR
STARTCHAR C215
ENCODING -1
SWIDTH 333 0
DWIDTH 9 0
BBX 18 27 -1 -6
BITMAP
000000
000000
000000
000000
003E00
003E00
007C00
007C00
007C00
00F800
00F800
00F800
01F000
01F000
01F000
03E000
03E000
03E000
07C000
07C000
07C000
000000
000000
000000
000000
000000
000000
ENDCHAR
STARTCHAR C216
ENCODING -1
SWIDTH 333 0
DWIDTH 9 0
BBX 18 27 -1 -6
BITMAP
000000
000000
000000
000000
003E00
003E00
007C00
007C00
007C00
00F800
00F800
00F800
01F000
01F000
01F000
03E000
03E000
03E000
07C000
07C000
07C000
000000
000000
000000
000000
000000
000000
ENDCHAR
STARTCHAR C217
ENCODING -1
SWIDTH 333 0
DWIDTH 9 0
BBX 18 27 -1 -6
BITMAP
000000
000000
000000
000000
003E00
003E00
007C00
007C00
007C00
00F800
00F800
00F800
01F000
01F000
01F000
03E000
03E000
03E000
07C000
07C000
07C000
000000
000000
000000
000000
000000
000000
ENDCHAR
STARTCHAR C220
ENCODING -1
SWIDTH 333 0
DWIDTH 9 0
BBX 18 27 -1 -6
BITMAP
000000
000000
000000
000000
003E00
003E00
007C00
007C00
007C00
00F800
00F800
00F800
01F000
01F000
01F000
03E000
03E000
03E000
07C000
07C000
07C000
000000
000000
000000
000000
000000
000000
ENDCHAR
STARTCHAR C221
ENCODING -1
SWIDTH 259 0
DWIDTH 7 0
BBX 16 27 -1 -6
BITMAP
0000
0000
0000
0000
0030
0060
00E0
00F0
00F0
00C0
0000
0000
0000
0000
0000
0000
0000
0000
0000
0000
0000
0000
0000
0000
0000
0000
0000
ENDCHAR
STARTCHAR C222
ENCODING -1
SWIDTH 259 0
DWIDTH 7 0
BBX 16 27 -1 -6
BITMAP
0000
0000
0000
0000
0018
003C
0078
0038
0018
0060
0000
0000
0000
0000
0000
0000
0000
0000
0000
0000
0000
0000
0000
0000
0000
0000
0000
ENDCHAR
STARTCHAR C223
ENCODING -1
SWIDTH 333 0
DWIDTH 9 0
BBX 18 27 -1 -6
BITMAP
000000
000000
000000
000000
003E00
003E00
007C00
007C00
007C00
00F800
00F800
00F800
01F000
01F000
01F000
03E000
03E000
03E000
07C000
07C000
07C000
000000
000000
000000
000000
000000
000000
ENDCHAR
STARTCHAR C224
ENCODING -1
SWIDTH 333 0
DWIDTH 9 0
BBX 18 27 -1 -6
BITMAP
000000
000000
000000
000000
003E00
003E00
007C00
007C00
007C00
00F800
00F800
00F800
01F000
01F000
01F000
03E000
03E000
03E000
07C000
07C000
07C000
000000
000000
000000
000000
000000
000000
ENDCHAR
STARTCHAR C225
ENCODING -1
SWIDTH 333 0
DWIDTH 9 0
BBX 18 27 -1 -6
BITMAP
000000
000000
000000
000000
003E00
003E00
007C00
007C00
007C00
00F800
00F800
00F800
01F000
01F000
01F000
03E000
03E000
03E000
07C000
07C000
07C000
000000
000000
000000
000000
000000
000000
ENDCHAR
STARTCHAR C226
ENCODING -1
SWIDTH 333 0
DWIDTH 9 0
BBX 18 27 -1 -6
BITMAP
000000
000000
000000
000000
003E00
003E00
007C00
007C00
007C00
00F800
00F800
00F800
01F000
01F000
01F000
03E000
03E000
03E000
07C000
07C000
07C000
000000
000000
000000
000000
000000
000000
ENDCHAR
STARTCHAR C227
ENCODING -1
SWIDTH 333 0
DWIDTH 9 0
BBX 18 27 -1 -6
BITMAP
000000
000000
000000
000000
003E00
003E00
007C00
007C00
007C00
00F800
00F800
00F800
01F000
01F000
01F000
03E000
03E000
03E000
07C000
07C000
07C000
000000
000000
000000
000000
000000
000000
ENDCHAR
STARTCHAR C230
ENCODING -1
SWIDTH 333 0
DWIDTH 9 0
BBX 18 27 -1 -6
BITMAP
000000
000000
000000
000000
003E00
003E00
007C00
007C00
007C00
00F800
00F800
00F800
01F000
01F000
01F000
03E000
03E000
03E000
07C000
07C000
07C000
000000
000000
000000
000000
000000
000000
ENDCHAR
STARTCHAR C231
ENCODING -1
SWIDTH 333 0
DWIDTH 9 0
BBX 18 27 -1 -6
BITMAP
000000
000000
000000
000000
003E00
003E00
007C00
007C00
007C00
00F800
00F800
00F800
01F000
01F000
01F000
03E000
03E000
03E000
07C000
07C000
07C000
000000
000000
000000
000000
000000
000000
ENDCHAR
STARTCHAR C232
ENCODING -1
SWIDTH 333 0
DWIDTH 9 0
BBX 18 27 -1 -6
BITMAP
000000
000000
000000
000000
003E00
003E00
007C00
007C00
007C00
00F800
00F800
00F800
01F000
01F000
01F000
03E000
03E000
03E000
07C000
07C000
07C000
000000
000000
000000
000000
000000
000000
ENDCHAR
STARTCHAR C233
ENCODING -1
SWIDTH 333 0
DWIDTH 9 0
BBX 18 27 -1 -6
BITMAP
000000
000000
000000
000000
003E00
003E00
007C00
007C00
007C00
00F800
00F800
00F800
01F000
01F000
01F000
03E000
03E000
03E000
07C000
07C000
07C000
000000
000000
000000
000000
000000
000000
ENDCHAR
STARTCHAR C234
ENCODING 176
SWIDTH 333 0
DWIDTH 9 0
BBX 18 27 -1 -6
BITMAP
000000
000000
000000
000000
003E00
003E00
007C00
007C00
007C00
00F800
00F800
00F800
01F000
01F000
01F000
03E000
03E000
03E000
07C000
07C000
07C000
000000
000000
000000
000000
000000
000000
ENDCHAR
STARTCHAR C235
ENCODING 178
SWIDTH 333 0
DWIDTH 9 0
BBX 18 27 -1 -6
BITMAP
000000
000000
000000
000000
003E00
003E00
007C00
007C00
007C00
00F800
00F800
00F800
01F000
01F000
01F000
03E000
03E000
03E000
07C000
07C000
07C000
000000
000000
000000
000000
000000
000000
ENDCHAR
STARTCHAR C236
ENCODING -1
SWIDTH 333 0
DWIDTH 9 0
BBX 18 27 -1 -6
BITMAP
000000
000000
000000
000000
003E00
003E00
007C00
007C00
007C00
00F800
00F800
00F800
01F000
01F000
01F000
03E000
03E000
03E000
07C000
07C000
07C000
000000
000000
000000
000000
000000
000000
ENDCHAR
STARTCHAR C237
ENCODING -1
SWIDTH 333 0
DWIDTH 9 0
BBX 18 27 -1 -6
BITMAP
000000
000000
000000
000000
003E00
003E00
007C00
007C00
007C00
00F800
00F800
00F800
01F000
01F000
01F000
03E000
03E000
03E000
07C000
07C000
07C000
000000
000000
000000
000000
000000
000000
ENDCHAR
STARTCHAR C240
ENCODING 160
SWIDTH 259 0
DWIDTH 7 0
BBX 16 27 -1 -6
BITMAP
0000
0000
0000
0000
0000
0000
0000
0000
0000
0000
0000
0000
0000
0000
0000
0000
0000
0000
0000
0000
0000
0000
0000
0000
0000
0000
0000
ENDCHAR
STARTCHAR exclamdown
ENCODING 161
SWIDTH 592 0
DWIDTH 16 0
BBX 25 27 -1 -6
BITMAP
00000000
000E3800
001F7C00
001C7000
00000000
007FFC00
00383800
00381800
00380000
00700000
0070C000
0070C000
00FF8000
00E18000
00E18000
01C00000
01C00000
01C00000
0380C000
0381C000
0FFF8000
00000000
00000000
00000000
00000000
00000000
00000000
ENDCHAR
STARTCHAR cent
ENCODING 162
SWIDTH 481 0
DWIDTH 13 0
BBX 22 27 -1 -6
BITMAP
000000
000000
000000
000000
000000
000000
000000
000060
000060
000180
001F80
0073C0
00CF80
01CC00
01D800
03B000
03E000
03E000
038600
03CE00
03FC00
0C0000
0C0000
000000
000000
000000
000000
ENDCHAR
STARTCHAR sterling
ENCODING 163
SWIDTH 481 0
DWIDTH 13 0
BBX 22 27 -1 -6
BITMAP
000000
000000
000000
000000
000FC0
001CE0
0071E0
0070C0
007000
00E000
007000
01FE00
00E000
00E000
00E000
01C000
03C000
07C000
13E300
17F700
0E3E00
000000
000000
000000
000000
000000
000000
ENDCHAR
STARTCHAR currency
ENCODING 164
SWIDTH 481 0
DWIDTH 13 0
BBX 22 27 -1 -6
BITMAP
000000
000000
000000
000000
000000
007FF0
00FFE0
0071C0
00E0E0
01C1C0
01C1C0
01C1C0
01C700
03FF80
03FF80
000000
000000
000000
000000
000000
000000
000000
000000
000000
000000
000000
000000
ENDCHAR
STARTCHAR yen
ENCODING 165
SWIDTH 481 0
DWIDTH 13 0
BBX 22 27 -1 -6
BITMAP
000000
000000
000000
000000
00F878
007030
00E060
0070C0
0070C0
007300
007300
03FFE0
007C00
007800
07FFC0
007000
007000
007000
00E000
00E000
03F800
000000
000000
000000
000000
000000
000000
ENDCHAR
STARTCHAR brokenbar
ENCODING 166
SWIDTH 259 0
DWIDTH 7 0
BBX 16 27 -1 -6
BITMAP
0000
0000
0000
0000
0038
0038
0070
0070
0070
00E0
00E0
0000
0000
0000
01C0
0380
0380
0380
0700
0700
0700
0000
0000
0000
0000
0000
0000
ENDCHAR
STARTCHAR section
ENCODING 167
SWIDTH 481 0
DWIDTH 13 0
BBX 22 27 -1 -6
BITMAP
000000
000000
000000
000000
0007C0
000EE0
0039C0
003800
001C00
001C00
003E00
006F00
01CF00
01C780
01E380
01E700
00F600
007C00
007000
003800
001C00
073800
077000
03E000
000000
000000
000000
ENDCHAR
STARTCHAR dieresis
ENCODING 168
SWIDTH 333 0
DWIDTH 9 0
BBX 18 27 -1 -6
BITMAP
000000
000000
000000
000000
007700
007700
000000
000000
000000
000000
000000
000000
000000
000000
000000
000000
000000
000000
000000
000000
000000
000000
000000
000000
000000
000000
000000
ENDCHAR
STARTCHAR copyright
ENCODING 169
SWIDTH 703 0
DWIDTH 19 0
BBX 28 27 -1 -6
BITMAP
00000000
00000000
00000000
00000000
0003F800
000F1E00
00380E00
00700700
0073F700
01CEE700
01DC6700
01DC0700
03B80E00
03B8CE00
039D8E00
039E3800
03803800
01C07000
01E3C000
007F0000
00000000
00000000
00000000
00000000
00000000
00000000
00000000
ENDCHAR
STARTCHAR ordfeminine
ENCODING 170
SWIDTH 333 0
DWIDTH 9 0
BBX 18 27 -1 -6
BITMAP
000000
000000
000000
000000
003E00
007700
000E00
001E00
007E00
01DC00
01FE00
00EE00
000000
03FC00
000000
000000
000000
000000
000000
000000
000000
000000
000000
000000
000000
000000
000000
ENDCHAR
STARTCHAR guillemotleft
ENCODING 171
SWIDTH 481 0
DWIDTH 13 0
BBX 22 27 -1 -6
BITMAP
000000
000000
000000
000000
000000
000000
000000
000000
000000
001DC0
003B80
007700
01DC00
03B800
03B800
03B800
01DC00
00EE00
00EE00
000000
000000
000000
000000
000000
000000
000000
000000
ENDCHAR
STARTCHAR logicalnot
ENCODING 172
SWIDTH 555 0
DWIDTH 15 0
BBX 24 27 -1 -6
BITMAP
000000
000000
000000
000000
000000
000000
000000
000000
000000
000000
000000
01FFF0
03FFE0
0000E0
0000E0
000000
000000
000000
000000
000000
000000
000000
000000
000000
000000
000000
000000
ENDCHAR
STARTCHAR hyphen
ENCODING 173
SWIDTH 333 0
DWIDTH 9 0
BBX 18 27 -1 -6
BITMAP
000000
000000
000000
000000
000000
000000
000000
000000
000000
000000
000000
000000
03F800
03F800
000000
000000
000000
000000
000000
000000
000000
000000
000000
000000
000000
000000
000000
ENDCHAR
STARTCHAR registered
ENCODING 174
SWIDTH 703 0
DWIDTH 19 0
BBX 28 27 -1 -6
BITMAP
00000000
00000000
00000000
00000000
0003F800
000F1E00
00380E00
00700700
007FE700
01CEE700
01CE6700
01CEE700
039F8E00
039F8E00
039DCE00
03FDF800
03803800
01C07000
01E3C000
007F0000
00000000
00000000
00000000
00000000
00000000
00000000
00000000
ENDCHAR
STARTCHAR macron
ENCODING 175
SWIDTH 481 0
DWIDTH 13 0
BBX 22 27 -1 -6
BITMAP
000000
000000
000000
00FFF8
00FFF8
000000
000000
000000
000000
000000
000000
000000
000000
000000
000000
000000
000000
000000
000000
000000
000000
000000
000000
000000
000000
000000
000000
ENDCHAR
STARTCHAR degree
ENCODING 156
SWIDTH 333 0
DWIDTH 9 0
BBX 18 27 -1 -6
BITMAP
000000
000000
000000
001C00
003E00
007700
00EE00
007C00
003800
000000
000000
000000
000000
000000
000000
000000
000000
000000
000000
000000
000000
000000
000000
000000
000000
000000
000000
ENDCHAR
STARTCHAR plusminus
ENCODING 177
SWIDTH 555 0
DWIDTH 15 0
BBX 24 27 -1 -6
BITMAP
000000
000000
000000
000000
000000
000000
000700
000700
000700
000E00
00FFE0
00FFE0
001C00
001C00
001C00
003800
000000
000000
000000
07FF00
07FF00
000000
000000
000000
000000
000000
000000
ENDCHAR
STARTCHAR twosuperior
ENCODING 157
SWIDTH 259 0
DWIDTH 7 0
BBX 16 27 -1 -6
BITMAP
0000
0000
0000
0000
0078
00FC
0038
0038
0070
01C0
01B0
03F0
0000
0000
0000
0000
0000
0000
0000
0000
0000
0000
0000
0000
0000
0000
0000
ENDCHAR
STARTCHAR threesuperior
ENCODING 179
SWIDTH 259 0
DWIDTH 7 0
BBX 16 27 -1 -6
BITMAP
0000
0000
0000
0000
0078
00FC
0038
00F0
0038
0070
03F0
01E0
0000
0000
0000
0000
0000
0000
0000
0000
0000
0000
0000
0000
0000
0000
0000
ENDCHAR
STARTCHAR acute
ENCODING 180
SWIDTH 333 0
DWIDTH 9 0
BBX 18 27 -1 -6
BITMAP
000000
000000
000000
000000
000E00
001C00
006000
000000
000000
000000
000000
000000
000000
000000
000000
000000
000000
000000
000000
000000
000000
000000
000000
000000
000000
000000
000000
ENDCHAR
STARTCHAR mu
ENCODING 181
SWIDTH 481 0
DWIDTH 13 0
BBX 22 27 -1 -6
BITMAP
000000
000000
000000
000000
000000
000000
000000
000000
000000
000000
01E3C0
00E1C0
01C380
01C380
01C380
038700
038700
038700
071E00
07BF00
07EC00
0E0000
0E0000
0E0000
1C0000
1C0000
000000
ENDCHAR
STARTCHAR paragraph
ENCODING 182
SWIDTH 444 0
DWIDTH 12 0
BBX 21 27 -1 -6
BITMAP
000000
000000
000000
000000
000000
000000
000000
003FC0
007FC0
01FB00
01FB00
01FB00
03F600
01F600
00F600
006C00
006C00
006C00
00D800
00D800
00D800
01B000
01B000
000000
000000
000000
000000
ENDCHAR
STARTCHAR periodcentered
ENCODING 183
SWIDTH 259 0
DWIDTH 7 0
BBX 16 27 -1 -6
BITMAP
0000
0000
0000
0000
0000
0000
0000
0000
0000
0000
0000
00E0
03E0
03E0
01C0
0000
0000
0000
0000
0000
0000
0000
0000
0000
0000
0000
0000
ENDCHAR
STARTCHAR cedilla
ENCODING 184
SWIDTH 333 0
DWIDTH 9 0
BBX 18 27 -1 -6
BITMAP
000000
000000
000000
000000
000000
000000
000000
000000
000000
000000
000000
000000
000000
000000
000000
000000
000000
000000
000000
000000
000000
030000
060000
078000
338000
1F0000
000000
ENDCHAR
STARTCHAR onesuperior
ENCODING 185
SWIDTH 259 0
DWIDTH 7 0
BBX 16 27 -1 -6
BITMAP
0000
0000
0000
0000
0018
0078
0070
0070
0070
00E0
00E0
01F0
0000
0000
0000
0000
0000
0000
0000
0000
0000
0000
0000
0000
0000
0000
0000
ENDCHAR
STARTCHAR ordmasculine
ENCODING 186
SWIDTH 333 0
DWIDTH 9 0
BBX 18 27 -1 -6
BITMAP
000000
000000
000000
000000
003E00
007700
00EE00
00EE00
00EE00
01DC00
01DC00
00F800
000000
03F800
000000
000000
000000
000000
000000
000000
000000
000000
000000
000000
000000
000000
000000
ENDCHAR
STARTCHAR guillemotright
ENCODING 187
SWIDTH 481 0
DWIDTH 13 0
BBX 22 27 -1 -6
BITMAP
000000
000000
000000
000000
000000
000000
000000
000000
00EE00
00EE00
007700
003B80
003B80
003B80
007700
01DC00
03B800
077000
000000
000000
000000
000000
000000
000000
000000
000000
000000
ENDCHAR
STARTCHAR onequarter
ENCODING 188
SWIDTH 629 0
DWIDTH 17 0
BBX 26 27 -1 -6
BITMAP
00000000
00000000
00000000
00000000
00381C00
00781C00
00707000
0070E000
0070E000
00E38000
00E70000
01F70000
001C0000
00387000
0038F000
00E1E000
01C3E000
01C3E000
070FE000
0E01C000
0E01C000
00000000
00000000
00000000
00000000
00000000
00000000
ENDCHAR
STARTCHAR onehalf
ENCODING 189
SWIDTH 629 0
DWIDTH 17 0
BBX 26 27 -1 -6
BITMAP
00000000
00000000
00000000
00000000
00180E00
00780E00
00703800
00707000
00707000
00E1C000
00E38000
01F38000
000E0000
001CF000
001DF800
00707000
00E07000
00E0E000
03838000
07036000
0707E000
00000000
00000000
00000000
00000000
00000000
00000000
ENDCHAR
STARTCHAR threequarters
ENCODING 190
SWIDTH 629 0
DWIDTH 17 0
BBX 26 27 -1 -6
BITMAP
00000000
00000000
00000000
00000000
003C0E00
007E0E00
001C3800
00787000
001C7000
0039C000
01FB8000
00F38000
000E0000
001C7000
001CF000
0071E000
00E3E000
00E3E000
038FE000
0701C000
0701C000
00000000
00000000
00000000
00000000
00000000
00000000
ENDCHAR
STARTCHAR questiondown
ENCODING 169
SWIDTH 444 0
DWIDTH 12 0
BBX 21 27 -1 -6
BITMAP
000000
000000
000000
000000
000000
000000
003300
007F80
003300
000000
007E00
00E700
038700
038700
03FF00
070000
070000
070000
071C00
07B800
01F000
000000
000000
000000
000000
000000
000000
ENDCHAR
STARTCHAR cyr-A
ENCODING 225
SWIDTH 666 0
DWIDTH 18 0
BBX 27 27 -1 -6
BITMAP
00000000
00000000
00000000
00000000
00000000
0000E000
0001C000
0003E000
0003E000
000EE000
000CE000
000CE000
0038E000
0030E000
0030E000
00FFE000
00C0E000
01C07000
0300E000
0300E000
0FC3F800
00000000
00000000
00000000
00000000
00000000
00000000
ENDCHAR
STARTCHAR cyr-Be
ENCODING 226
SWIDTH 592 0
DWIDTH 16 0
BBX 25 27 -1 -6
BITMAP
00000000
00000000
00000000
00000000
00000000
007FFE00
00701C00
00700C00
00700000
00E00000
00E00000
00FFC000
01C1E000
01C0E000
01C07000
0380E000
0380E000
0380E000
07038000
07078000
0FFE0000
00000000
00000000
00000000
00000000
00000000
00000000
ENDCHAR
STARTCHAR cyr-Ve
ENCODING 247
SWIDTH 592 0
DWIDTH 16 0
BBX 25 27 -1 -6
BITMAP
00000000
00000000
00000000
00000000
00000000
007FF000
00707000
00703800
00703800
00E07000
00E07000
00E0E000
01FFC000
01C1E000
01C0E000
0380E000
0380E000
0380E000
07038000
07078000
0FFE0000
00000000
00000000
00000000
00000000
00000000
00000000
ENDCHAR
STARTCHAR cyr-Ghe
ENCODING 231
SWIDTH 555 0
DWIDTH 15 0
BBX 24 27 -1 -6
BITMAP
000000
000000
000000
000000
000000
007FFC
007038
007018
007000
00E000
00E000
00E000
01C000
01C000
01C000
038000
038000
038000
070000
070000
0F8000
000000
000000
000000
000000
000000
000000
ENDCHAR
STARTCHAR cyr-De
ENCODING 228
SWIDTH 666 0
DWIDTH 18 0
BBX 27 27 -1 -6
BITMAP
00000000
00000000
00000000
00000000
00000000
001FFF00
00181C00
00181C00
00181C00
00303800
00303800
00303800
00607000
00607000
00607000
00C0E000
00C0E000
00C0E000
0181C000
0301C000
0FFFF000
1C00E000
18006000
18006000
00000000
00000000
00000000
ENDCHAR
STARTCHAR cyr-Ie
ENCODING 229
SWIDTH 555 0
DWIDTH 15 0
BBX 24 27 -1 -6
BITMAP
000000
000000
000000
000000
000000
007FF8
007070
007030
007000
00E000
00E000
00E180
01FF00
01C300
01C000
038000
038000
038000
070180
070380
0FFF80
000000
000000
000000
000000
000000
000000
ENDCHAR
STARTCHAR cyr-Zhe
ENCODING 246
SWIDTH 888 0
DWIDTH 24 0
BBX 33 27 -1 -6
BITMAP
0000000000
0000000000
0000000000
0000000000
0000000000
003C7F1E00
007C387C00
000638C000
000638C000
0006730000
0006730000
0003FE0000
000FFE0000
000EEE0000
001CE70000
0039CE0000
0071C70000
00E1C38000
01C3870000
0383838000
0FCFE7E000
0000000000
0000000000
0000000000
0000000000
0000000000
0000000000
ENDCHAR
STARTCHAR cyr-Ze
ENCODING 250
SWIDTH 481 0
DWIDTH 13 0
BBX 22 27 -1 -6
BITMAP
000000
000000
000000
000000
000000
007F80
00E1C0
00C0E0
0000E0
0001C0
0001C0
000380
003E00
000700
000380
000700
000700
000700
0C0E00
0E1C00
0FF000
000000
000000
000000
000000
000000
000000
ENDCHAR
STARTCHAR cyr-I
ENCODING 233
SWIDTH 592 0
DWIDTH 16 0
BBX 25 27 -1 -6
BITMAP
00000000
00000000
00000000
00000000
00000000
007C3E00
00707800
00707800
0070F800
00E1F000
00E37000
00E37000
01CCE000
01CCE000
01D8E000
03B1C000
03E1C000
03E1C000
07838000
07838000
0F87C000
00000000
00000000
00000000
00000000
00000000
00000000
ENDCHAR
STARTCHAR cyr-I-short
ENCODING 234
SWIDTH 592 0
DWIDTH 16 0
BBX 25 27 -1 -6
BITMAP
00000000
00031800
0003B800
0003E000
00000000
007C3E00
00707800
00707800
0070F800
00E1F000
00E37000
00E37000
01CCE000
01CCE000
01D8E000
03B1C000
03E1C000
03E1C000
07838000
07838000
0F87C000
00000000
00000000
00000000
00000000
00000000
00000000
ENDCHAR
STARTCHAR cyr-Ka
ENCODING 235
SWIDTH 592 0
DWIDTH 16 0
BBX 25 27 -1 -6
BITMAP
00000000
00000000
00000000
00000000
00000000
007F1E00
00387C00
0038C000
0038C000
00730000
00730000
007E0000
00FE0000
00EE0000
00E70000
01CE0000
01C70000
01C38000
03870000
03838000
0FE7E000
00000000
00000000
00000000
00000000
00000000
00000000
ENDCHAR
STARTCHAR cyr-El
ENCODING 236
SWIDTH 629 0
DWIDTH 17 0
BBX 26 27 -1 -6
BITMAP
00000000
00000000
00000000
00000000
00000000
000FFF00
000C1C00
000C1C00
000C1C00
00183800
00183800
00183800
00307000
00307000
00307000
0060E000
0060E000
0060E000
0FC1C000
0FC1C000
0787E000
00000000
00000000
00000000
00000000
00000000
00000000
ENDCHAR
STARTCHAR cyr-Em
ENCODING 237
SWIDTH 740 0
DWIDTH 20 0
BBX 29 27 -1 -6
BITMAP
00000000
00000000
00000000
00000000
00000000
007C03E0
00780780
007C0780
007C0F80
00F81F00
00DC1F00
00DC3F00
019C6E00
019C6E00
019CEE00
031D9C00
031F9C00
030F1C00
061E3800
061E3800
0F0C7C00
00000000
00000000
00000000
00000000
00000000
00000000
ENDCHAR
STARTCHAR cyr-En
ENCODING 238
SWIDTH 592 0
DWIDTH 16 0
BBX 25 27 -1 -6
BITMAP
00000000
00000000
00000000
00000000
00000000
007C3E00
00703800
00703800
00703800
00E07000
00E07000
00E07000
01FFE000
01C0E000
01C0E000
0381C000
0381C000
0381C000
07038000
07038000
0F87C000
00000000
00000000
00000000
00000000
00000000
00000000
ENDCHAR
STARTCHAR cyr-O
ENCODING 239
SWIDTH 666 0
DWIDTH 18 0
BBX 27 27 -1 -6
BITMAP
00000000
00000000
00000000
00000000
00000000
0003F000
001E7800
00381C00
00781E00
00E01C00
01E01E00
01E01E00
03C03C00
03C03C00
03C03C00
07807800
03807000
03C0F000
0381C000
01E78000
007E0000
00000000
00000000
00000000
00000000
00000000
00000000
ENDCHAR
STARTCHAR cyr-Pe
ENCODING 240
SWIDTH 592 0
DWIDTH 16 0
BBX 25 27 -1 -6
BITMAP
00000000
00000000
00000000
00000000
00000000
007FFE00
00703800
00703800
00703800
00E07000
00E07000
00E07000
01C0E000
01C0E000
01C0E000
0381C000
0381C000
0381C000
07038000
07038000
0F87C000
00000000
00000000
00000000
00000000
00000000
00000000
ENDCHAR
STARTCHAR cyr-Er
ENCODING 242
SWIDTH 555 0
DWIDTH 15 0
BBX 24 27 -1 -6
BITMAP
000000
000000
000000
000000
000000
007FE0
0070F0
007070
007038
00E070
00E070
00E070
01C1C0
01C3C0
01FF00
038000
038000
038000
070000
070000
0F8000
000000
000000
000000
000000
000000
000000
ENDCHAR
STARTCHAR cyr-Es
ENCODING 243
SWIDTH 592 0
DWIDTH 16 0
BBX 25 27 -1 -6
BITMAP
00000000
00000000
00000000
00000000
00000000
0003F600
001E7C00
00381C00
00780C00
00E01800
01E00000
01E00000
03C00000
03C00000
03C00000
07800000
03800000
03C06000
03C18000
01E70000
007C0000
00000000
00000000
00000000
00000000
00000000
00000000
ENDCHAR
STARTCHAR cyr-Te
ENCODING 244
SWIDTH 629 0
DWIDTH 17 0
BBX 26 27 -1 -6
BITMAP
00000000
00000000
00000000
00000000
00000000
007FFF00
00E38E00
00C38600
00038000
00070000
00070000
00070000
000E0000
000E0000
000E0000
001C0000
001C0000
001C0000
00380000
00380000
007C0000
00000000
00000000
00000000
00000000
00000000
00000000
ENDCHAR
STARTCHAR cyr-U
ENCODING 245
SWIDTH 740 0
DWIDTH 20 0
BBX 29 27 -1 -6
BITMAP
00000000
00000000
00000000
00000000
00000000
007F03F0
003C0380
001E0700
000E0600
001E1C00
000F3800
00073000
000FE000
0007C000
00038000
00070000
000E0000
000C0000
00380000
03F00000
01E00000
00000000
00000000
00000000
00000000
00000000
00000000
ENDCHAR
STARTCHAR cyr-Ef
ENCODING 230
SWIDTH 703 0
DWIDTH 19 0
BBX 28 27 -1 -6
BITMAP
00000000
00000000
00000000
00000000
00000000
0003F800
001FFC00
0039CE00
0071C700
00E38E00
01C38700
01C38700
03870E00
03870E00
01C71C00
038E3800
01CE7000
00FFE000
007F0000
001C0000
003E0000
00000000
00000000
00000000
00000000
00000000
00000000
ENDCHAR
STARTCHAR cyr-Kha
ENCODING 232
SWIDTH 703 0
DWIDTH 19 0
BBX 28 27 -1 -6
BITMAP
00000000
00000000
00000000
00000000
00000000
007F9FC0
003C0E00
001C1800
000E1800
000E6000
0007C000
00038000
00078000
00078000
000DC000
0031C000
0031C000
0060E000
0180E000
03C0E000
0FF3F800
00000000
00000000
00000000
00000000
00000000
00000000
ENDCHAR
STARTCHAR cyr-Tse
ENCODING 227
SWIDTH 629 0
DWIDTH 17 0
BBX 26 27 -1 -6
BITMAP
00000000
00000000
00000000
00000000
00000000
007C3E00
00703800
00703800
00703800
00E07000
00E07000
00E07000
01C0E000
01C0E000
01C0E000
0381C000
0381C000
0381C000
07038000
07038000
0FFFE000
0001C000
0000C000
0000C000
00000000
00000000
00000000
ENDCHAR
STARTCHAR cyr-Che
ENCODING 254
SWIDTH 592 0
DWIDTH 16 0
BBX 25 27 -1 -6
BITMAP
00000000
00000000
00000000
00000000
00000000
007C3E00
00703800
00703800
00703800
00E07000
00E07000
00E07000
01C0E000
00FFE000
0000E000
0001C000
0001C000
0001C000
00038000
00038000
0007C000
00000000
00000000
00000000
00000000
00000000
00000000
ENDCHAR
STARTCHAR cyr-Sha
ENCODING 251
SWIDTH 777 0
DWIDTH 21 0
BBX 30 27 -1 -6
BITMAP
00000000
00000000
00000000
00000000
00000000
007CF9F0
0070E1C0
0070E1C0
0070E1C0
00E1C380
00E1C380
00E1C380
01C38700
01C38700
01C38700
03870E00
03870E00
03870E00
070E1C00
070E1C00
0FFFFE00
00000000
00000000
00000000
00000000
00000000
00000000
ENDCHAR
STARTCHAR cyr-Shcha
ENCODING 253
SWIDTH 814 0
DWIDTH 22 0
BBX 31 27 -1 -6
BITMAP
00000000
00000000
00000000
00000000
00000000
007CF9F0
0070E1C0
0070E1C0
0070E1C0
00E1C380
00E1C380
00E1C380
01C38700
01C38700
01C38700
03870E00
03870E00
03870E00
070E1C00
070E1C00
0FFFFF00
00000E00
00000600
00000600
00000000
00000000
00000000
ENDCHAR
STARTCHAR cyr-Ier
ENCODING 255
SWIDTH 703 0
DWIDTH 19 0
BBX 28 27 -1 -6
BITMAP
00000000
00000000
00000000
00000000
00000000
007F8000
00EE0000
00CE0000
00CE0000
001C0000
001C0000
001FFC00
00381C00
00380E00
00380E00
00701C00
00701C00
00701C00
00E03800
00E07000
01FFE000
00000000
00000000
00000000
00000000
00000000
00000000
ENDCHAR
STARTCHAR cyr-Iery
ENCODING 249
SWIDTH 777 0
DWIDTH 21 0
BBX 30 27 -1 -6
BITMAP
00000000
00000000
00000000
00000000
00000000
007C01F0
007001C0
007001C0
007001C0
00E00380
00E00380
00FFE380
01C0E700
01C07700
01C07700
0380EE00
0380EE00
0380EE00
0701DC00
07039C00
0FFF3E00
00000000
00000000
00000000
00000000
00000000
00000000
ENDCHAR
STARTCHAR cyr-Ierik
ENCODING 248
SWIDTH 592 0
DWIDTH 16 0
BBX 25 27 -1 -6
BITMAP
00000000
00000000
00000000
00000000
00000000
007C0000
00700000
00700000
00700000
00E00000
00E00000
00FFE000
01C0E000
01C07000
01C07000
0380E000
0380E000
0380E000
0701C000
07038000
0FFF0000
00000000
00000000
00000000
00000000
00000000
00000000
ENDCHAR
STARTCHAR cyr-E-rev
ENCODING 252
SWIDTH 518 0
DWIDTH 14 0
BBX 23 27 -1 -6
BITMAP
000000
000000
000000
000000
000000
007FC0
00E0E0
00C070
000070
0000E0
0000E0
0030E0
007FC0
0061C0
0001C0
000380
000380
000380
0C0700
0E0E00
0FF800
000000
000000
000000
000000
000000
000000
ENDCHAR
STARTCHAR cyr-Yu
ENCODING 224
SWIDTH 888 0
DWIDTH 24 0
BBX 33 27 -1 -6
BITMAP
0000000000
0000000000
0000000000
0000000000
0000000000
007C0FC000
007079E000
0070E07000
0071C03800
00E3807000
00E7003800
00E7003800
01FE007000
01CE007000
01CE007000
039C00E000
038E01C000
038E01C000
070E070000
07079E0000
0F81F80000
0000000000
0000000000
0000000000
0000000000
0000000000
0000000000
ENDCHAR
STARTCHAR cyr-Ya
ENCODING 241
SWIDTH 629 0
DWIDTH 17 0
BBX 26 27 -1 -6
BITMAP
00000000
00000000
00000000
00000000
00000000
0003FF00
001E1C00
001C1C00
00381C00
00703800
00703800
00383800
00787000
001FF000
00077000
001CE000
0038E000
0070E000
01C1C000
0381C000
0F03E000
00000000
00000000
00000000
00000000
00000000
00000000
ENDCHAR
STARTCHAR cyr-a
ENCODING 193
SWIDTH 444 0
DWIDTH 12 0
BBX 21 27 -1 -6
BITMAP
000000
000000
000000
000000
000000
000000
000000
000000
000000
000000
007E00
00E700
01CE00
000E00
003E00
01FC00
039C00
071C00
0E7E00
0FFE00
07DC00
000000
000000
000000
000000
000000
000000
ENDCHAR
STARTCHAR cyr-be
ENCODING 194
SWIDTH 407 0
DWIDTH 11 0
BBX 20 27 -1 -6
BITMAP
000000
000000
000000
0000C0
001F80
003000
00E000
00E000
00E000
01C000
01FE00
01E700
038700
038700
038700
070E00
070E00
070E00
0E1C00
073800
03E000
000000
000000
000000
000000
000000
000000
ENDCHAR
STARTCHAR cyr-ve
ENCODING 215
SWIDTH 407 0
DWIDTH 11 0
BBX 20 27 -1 -6
BITMAP
000000
000000
000000
000000
000000
000000
000000
000000
000000
000000
01FE00
00E700
01CE00
01CE00
01DC00
03FC00
038E00
038E00
071C00
071C00
0FF800
000000
000000
000000
000000
000000
000000
ENDCHAR
STARTCHAR cyr-ghe
ENCODING 199
SWIDTH 370 0
DWIDTH 10 0
BBX 19 27 -1 -6
BITMAP
000000
000000
000000
000000
000000
000000
000000
000000
000000
000000
01FF00
00E300
01C600
01C000
01C000
038000
038000
038000
070000
070000
0F8000
000000
000000
000000
000000
000000
000000
ENDCHAR
STARTCHAR cyr-de
ENCODING 196
SWIDTH 481 0
DWIDTH 13 0
BBX 22 27 -1 -6
BITMAP
000000
000000
000000
000000
000000
000000
000000
000000
000000
000000
007FC0
003380
006700
006700
006700
00CE00
00CE00
00CE00
019C00
031C00
0FFF00
1C0E00
180600
000000
000000
000000
000000
ENDCHAR
STARTCHAR cyr-ie
ENCODING 197
SWIDTH 407 0
DWIDTH 11 0
BBX 20 27 -1 -6
BITMAP
000000
000000
000000
000000
000000
000000
000000
000000
000000
000000
007E00
00E700
038700
038700
03FF00
070000
070000
070000
0E1C00
073800
03F000
000000
000000
000000
000000
000000
000000
ENDCHAR
STARTCHAR cyr-zhe
ENCODING 214
SWIDTH 703 0
DWIDTH 19 0
BBX 28 27 -1 -6
BITMAP
00000000
00000000
00000000
00000000
00000000
00000000
00000000
00000000
00000000
00000000
01E7CF00
01F39F00
00673000
00376000
001FC000
003F8000
007FC000
00EEE000
039CE000
071C7000
1FBEFC00
00000000
00000000
00000000
00000000
00000000
00000000
ENDCHAR
STARTCHAR cyr-z
ENCODING 218
SWIDTH 407 0
DWIDTH 11 0
BBX 20 27 -1 -6
BITMAP
000000
000000
000000
000000
000000
000000
000000
000000
000000
000000
01FE00
01C700
030700
000700
000E00
00F800
001C00
000E00
0C1C00
0E3800
0FF000
000000
000000
000000
000000
000000
000000
ENDCHAR
STARTCHAR cyr-i
ENCODING 201
SWIDTH 481 0
DWIDTH 13 0
BBX 22 27 -1 -6
BITMAP
000000
000000
000000
000000
000000
000000
000000
000000
000000
000000
01F3E0
00E3C0
01CF80
01CF80
01DB80
03B700
03E700
03E700
078E00
078E00
0F9F00
000000
000000
000000
000000
000000
000000
ENDCHAR
STARTCHAR cyr-i-short
ENCODING 202
SWIDTH 481 0
DWIDTH 13 0
BBX 22 27 -1 -6
BITMAP
000000
000000
000000
000000
000000
000000
000000
001F80
000F00
000000
01F3E0
00E3C0
01CF80
01CF80
01DB80
03B700
03E700
03E700
078E00
078E00
0F9F00
000000
000000
000000
000000
000000
000000
ENDCHAR
STARTCHAR cyr-ka
ENCODING 203
SWIDTH 481 0
DWIDTH 13 0
BBX 22 27 -1 -6
BITMAP
000000
000000
000000
000000
000000
000000
000000
000000
000000
000000
01F3C0
00E7C0
01CC00
01D800
01F000
03E000
03F000
03B800
073800
071C00
0FBF00
000000
000000
000000
000000
000000
000000
ENDCHAR
STARTCHAR cyr-el
ENCODING 204
SWIDTH 481 0
DWIDTH 13 0
BBX 22 27 -1 -6
BITMAP
000000
000000
000000
000000
000000
000000
000000
000000
000000
000000
007FE0
0031C0
006380
006380
006380
00C700
00C700
00C700
018E00
0F8E00
0F1F00
000000
000000
000000
000000
000000
000000
ENDCHAR
STARTCHAR cyr-em
ENCODING 205
SWIDTH 592 0
DWIDTH 16 0
BBX 25 27 -1 -6
BITMAP
00000000
00000000
00000000
00000000
00000000
00000000
00000000
00000000
00000000
00000000
01E07C00
00F07800
01E1F000
01F1F000
01F37000
0376E000
037CE000
033CE000
0679C000
0631C000
0F03E000
00000000
00000000
00000000
00000000
00000000
00000000
ENDCHAR
STARTCHAR cyr-en
ENCODING 206
SWIDTH 481 0
DWIDTH 13 0
BBX 22 27 -1 -6
BITMAP
000000
000000
000000
000000
000000
000000
000000
000000
000000
000000
01F3E0
00E1C0
01C380
01C380
01C380
03FF00
038700
038700
070E00
070E00
0F9F00
000000
000000
000000
000000
000000
000000
ENDCHAR
STARTCHAR cyr-o
ENCODING 207
SWIDTH 444 0
DWIDTH 12 0
BBX 21 27 -1 -6
BITMAP
000000
000000
000000
000000
000000
000000
000000
000000
000000
000000
007F00
00E380
038380
038380
038380
070700
070700
070700
0E0E00
071C00
03F800
000000
000000
000000
000000
000000
000000
ENDCHAR
STARTCHAR cyr-pe
ENCODING 208
SWIDTH 481 0
DWIDTH 13 0
BBX 22 27 -1 -6
BITMAP
000000
000000
000000
000000
000000
000000
000000
000000
000000
000000
01FFE0
00E1C0
01C380
01C380
01C380
038700
038700
038700
070E00
070E00
0F9F00
000000
000000
000000
000000
000000
000000
ENDCHAR
STARTCHAR cyr-er
ENCODING 210
SWIDTH 444 0
DWIDTH 12 0
BBX 21 27 -1 -6
BITMAP
000000
000000
000000
000000
000000
000000
000000
000000
000000
000000
00FF00
00E380
01C380
01C380
01C380
038700
038700
038700
070E00
071C00
07F800
0E0000
0E0000
0E0000
1C0000
3E0000
000000
ENDCHAR
STARTCHAR cyr-es
ENCODING 211
SWIDTH 407 0
DWIDTH 11 0
BBX 20 27 -1 -6
BITMAP
000000
000000
000000
000000
000000
000000
000000
000000
000000
000000
007F00
00E380
038700
038000
038000
070000
070000
070000
0E0C00
071C00
03F800
000000
000000
000000
000000
000000
000000
ENDCHAR
STARTCHAR cyr-te
ENCODING 212
SWIDTH 444 0
DWIDTH 12 0
BBX 21 27 -1 -6
BITMAP
000000
000000
000000
000000
000000
000000
000000
000000
000000
000000
01FFC0
019CC0
003800
003800
003800
007000
007000
007000
00E000
00E000
01F000
000000
000000
000000
000000
000000
000000
ENDCHAR
STARTCHAR cyr-u
ENCODING 213
SWIDTH 481 0
DWIDTH 13 0
BBX 22 27 -1 -6
BITMAP
000000
000000
000000
000000
000000
000000
000000
000000
000000
000000
01F1E0
00E0C0
01C180
00E300
00E300
00EC00
00EC00
007800
00F000
006000
006000
018000
018000
030000
3E0000
3C0000
000000
ENDCHAR
STARTCHAR cyr-ef
ENCODING 198
SWIDTH 518 0
DWIDTH 14 0
BBX 23 27 -1 -6
BITMAP
000000
000000
000000
000000
000000
000000
000000
000000
000000
000000
001F80
007FC0
01DDC0
039CE0
039CE0
0739C0
0739C0
0739C0
077700
03FE00
01FC00
00E000
00E000
00E000
01C000
01C000
03E000
ENDCHAR
STARTCHAR cyr-kha
ENCODING 200
SWIDTH 444 0
DWIDTH 12 0
BBX 21 27 -1 -6
BITMAP
000000
000000
000000
000000
000000
000000
000000
000000
000000
000000
01F7C0
00E300
00EC00
00FC00
007800
007000
007800
00F800
033800
071C00
0FBE00
000000
000000
000000
000000
000000
000000
ENDCHAR
STARTCHAR cyr-tse
ENCODING 195
SWIDTH 518 0
DWIDTH 14 0
BBX 23 27 -1 -6
BITMAP
000000
000000
000000
000000
000000
000000
000000
000000
000000
000000
01F3E0
00E1C0
01C380
01C380
01C380
038700
038700
038700
070E00
070E00
0FFF80
000700
000300
000000
000000
000000
000000
ENDCHAR
STARTCHAR cyr-che
ENCODING 222
SWIDTH 481 0
DWIDTH 13 0
BBX 22 27 -1 -6
BITMAP
000000
000000
000000
000000
000000
000000
000000
000000
000000
000000
01F3E0
00E1C0
01C380
01C380
01C380
038700
01FF00
000700
000E00
000E00
001F00
000000
000000
000000
000000
000000
000000
ENDCHAR
STARTCHAR cyr-sha
ENCODING 219
SWIDTH 666 0
DWIDTH 18 0
BBX 27 27 -1 -6
BITMAP
00000000
00000000
00000000
00000000
00000000
00000000
00000000
00000000
00000000
00000000
01F7DF00
00E38E00
01C71C00
01C71C00
01C71C00
038E3800
038E3800
038E3800
071C7000
071C7000
0FFFF800
00000000
00000000
00000000
00000000
00000000
00000000
ENDCHAR
STARTCHAR cyr-shcha
ENCODING 221
SWIDTH 703 0
DWIDTH 19 0
BBX 28 27 -1 -6
BITMAP
00000000
00000000
00000000
00000000
00000000
00000000
00000000
00000000
00000000
00000000
01F7DF00
00E38E00
01C71C00
01C71C00
01C71C00
038E3800
038E3800
038E3800
071C7000
071C7000
0FFFFC00
00003800
00001800
00000000
00000000
00000000
00000000
ENDCHAR
STARTCHAR cyr-ier
ENCODING 223
SWIDTH 518 0
DWIDTH 14 0
BBX 23 27 -1 -6
BITMAP
000000
000000
000000
000000
000000
000000
000000
000000
000000
000000
01FE00
01DC00
033800
033800
003FC0
0071C0
0071C0
0071C0
00E380
00E380
01FF00
000000
000000
000000
000000
000000
000000
ENDCHAR
STARTCHAR cyr-iery
ENCODING 217
SWIDTH 592 0
DWIDTH 16 0
BBX 25 27 -1 -6
BITMAP
00000000
00000000
00000000
00000000
00000000
00000000
00000000
00000000
00000000
00000000
01F07C00
00E03800
01C07000
01C07000
01FE7000
038EE000
038EE000
038EE000
071DC000
071DC000
0FFBE000
00000000
00000000
00000000
00000000
00000000
00000000
ENDCHAR
STARTCHAR cyr-ierik
ENCODING 216
SWIDTH 407 0
DWIDTH 11 0
BBX 20 27 -1 -6
BITMAP
000000
000000
000000
000000
000000
000000
000000
000000
000000
000000
01F000
00E000
01C000
01C000
01FE00
038E00
038E00
038E00
071C00
071C00
0FF800
000000
000000
000000
000000
000000
000000
ENDCHAR
STARTCHAR cyr-e-rev
ENCODING 220
SWIDTH 407 0
DWIDTH 11 0
BBX 20 27 -1 -6
BITMAP
000000
000000
000000
000000
000000
000000
000000
000000
000000
000000
00FE00
01C700
030700
000700
000700
01FE00
000E00
000E00
0C1C00
0E3800
07F000
000000
000000
000000
000000
000000
000000
ENDCHAR
STARTCHAR cyr-yu
ENCODING 192
SWIDTH 629 0
DWIDTH 17 0
BBX 26 27 -1 -6
BITMAP
00000000
00000000
00000000
00000000
00000000
00000000
00000000
00000000
00000000
00000000
01F1F000
00E3B800
01CE3800
01DC1C00
01DC1C00
03F83800
03B83800
03B83800
0738E000
071DC000
0F8F8000
00000000
00000000
00000000
00000000
00000000
00000000
ENDCHAR
STARTCHAR cyr-ya
ENCODING 209
SWIDTH 518 0
DWIDTH 14 0
BBX 23 27 -1 -6
BITMAP
000000
000000
000000
000000
000000
000000
000000
000000
000000
000000
003FF0
0070E0
00E1C0
00E1C0
00E1C0
00FF80
007380
00E380
01C700
038700
0F8F80
000000
000000
000000
000000
000000
000000
ENDCHAR
ENDFONT
